<?xml version="1.0" encoding="UTF-8" standalone="no"?>
<!-- Created with Inkscape (http://www.inkscape.org/) -->

<svg
   width="786.60077"
   height="414.93399"
   viewBox="0 0 786.60077 414.93399"
   version="1.1"
   id="svg5"
   inkscape:version="1.2.2 (732a01da63, 2022-12-09)"
   sodipodi:docname="the_logo_w.svg"
   inkscape:export-filename="the_final_logo.png"
   inkscape:export-xdpi="177.77777"
   inkscape:export-ydpi="177.77777"
   xmlns:inkscape="http://www.inkscape.org/namespaces/inkscape"
   xmlns:sodipodi="http://sodipodi.sourceforge.net/DTD/sodipodi-0.dtd"
   xmlns="http://www.w3.org/2000/svg"
   xmlns:svg="http://www.w3.org/2000/svg">
  <sodipodi:namedview
     id="namedview7"
     pagecolor="#ffffff"
     bordercolor="#000000"
     borderopacity="0.25"
     inkscape:showpageshadow="2"
     inkscape:pageopacity="0.0"
     inkscape:pagecheckerboard="0"
     inkscape:deskcolor="#d1d1d1"
     inkscape:document-units="px"
     showgrid="false"
     inkscape:zoom="0.35355339"
     inkscape:cx="421.43564"
     inkscape:cy="164.04877"
     inkscape:window-width="1366"
     inkscape:window-height="705"
     inkscape:window-x="-8"
     inkscape:window-y="-8"
     inkscape:window-maximized="1"
     inkscape:current-layer="layer2" />
  <defs
     id="defs2">
    <rect
       x="442.20438"
       y="701.12665"
       width="183.28207"
       height="84.367943"
       id="rect34578" />
    <linearGradient
       id="linearGradient3298"
       inkscape:swatch="solid">
      <stop
         style="stop-color:#970000;stop-opacity:1;"
         offset="0"
         id="stop3296" />
    </linearGradient>
  </defs>
  <g
     inkscape:groupmode="layer"
     id="layer2"
     inkscape:label="Layer 2"
     transform="translate(-146.69962,-332.53289)">
    <g
       id="g350"
       transform="translate(-1.570642e-5,15.808424)"
       style="display:inline">
      <g
         aria-label="العرب"
         id="text34584"
         style="font-size:306.667px;font-family:'All Genders v4';-inkscape-font-specification:'All Genders v4';text-align:center;text-anchor:middle;stroke:#000000;stroke-width:0;paint-order:markers stroke fill">
        <path
           d="m 890.06035,534.15137 h 43.24004 v -217.4269 l -43.24004,26.06669 z"
           style="fill:#ffffff"
           id="path178" />
        <path
           d="m 770.46,534.15137 h 11.96001 c 46.92005,0 70.22674,-24.84003 70.22674,-74.21341 V 317.03114 l -42.62671,25.45336 v 121.44013 c 0,17.17335 -8.89334,25.76002 -26.68003,25.76002 H 770.46 Z"
           style="fill:#ffffff"
           id="path180" />
        <path
           d="m 708.20653,534.15137 h 71.45341 v -44.46672 h -76.66675 c 24.53336,-20.85335 32.81337,-36.49337 34.04003,-42.32004 3.06667,-6.74668 4.29334,-13.49335 4.29334,-20.54669 0,-41.40004 -42.01338,-56.73339 -85.25342,-56.73339 -33.4267,0 -63.48007,12.26668 -81.26675,23.92002 -3.37334,12.26668 -6.13334,27.29336 -7.97335,45.08005 l 3.06667,2.76 c 1.22667,1.22667 29.7467,26.0667 49.06672,47.84005 h -83.72009 v 44.46672 h 54.58673 c 25.14669,0 46.61338,-4.60001 65.0134,-13.49335 11.96001,8.28001 29.7467,13.49335 53.36006,13.49335 z M 608.84642,422.21792 c 8.28001,-5.82668 21.77336,-12.88002 47.22672,-12.88002 27.9067,0 37.1067,13.49335 37.1067,23.00003 0,20.85335 -17.78668,34.96003 -33.4267,44.16004 -14.72001,-21.77335 -31.5867,-39.86671 -50.90672,-54.28005 z"
           style="fill:#ffffff"
           id="path182" />
        <path
           d="m 432.51312,598.8581 h 17.78668 c 43.85338,0 67.16007,-21.46669 69.92008,-64.70673 h 24.22669 V 489.68465 H 520.52654 V 381.43121 L 477.2865,407.4979 v 118.68013 c 0,17.17335 -8.89334,25.76002 -26.68003,25.76002 h -8.58668 z"
           style="fill:#ffffff"
           id="path184" />
        <path
           d="m 216.92638,534.15137 h 126.65347 c 47.22672,0 70.53341,-24.84003 70.53341,-74.21341 v -78.81342 l -42.93338,25.45336 v 57.34673 c 0,17.17335 -8.58668,25.76002 -26.37336,25.76002 H 216.92638 c -17.78668,0 -26.68003,-8.89334 -26.68003,-26.98669 0,-28.8267 3.06667,-38.64004 30.97337,-38.64004 l 7.36001,-43.24005 h -13.18668 c -45.69339,0 -68.69341,23.92003 -68.69341,72.06674 v 6.13334 c 0,49.98672 23.30669,75.13342 70.22674,75.13342 z m 54.89339,57.34672 h 38.33338 v -37.72004 h -38.33338 z"
           style="fill:#ffffff"
           id="path186" />
      </g>
      <g
         aria-label="قلب الحضارة النابض"
         id="text192"
         style="font-size:94.6667px;font-family:'All Genders v4';-inkscape-font-specification:'All Genders v4';text-align:center;text-anchor:middle;stroke:#000000;stroke-width:0;paint-order:markers stroke fill">
        <path
           d="m 905.93403,666.14932 q 15.52534,0 21.96267,17.41868 0.75734,3.976 0.75734,6.05867 0,16.09334 -17.41868,22.34134 -3.02933,0.75733 -6.43733,0.75733 h -30.67201 q -0.75734,0 -0.75734,-0.75733 v -9.84534 q 0.0947,-0.75733 0.75734,-0.75733 h 11.73867 v -0.37867 q -3.02934,-5.964 -3.02934,-11.73867 0,-16.09334 17.41868,-22.34134 3.21866,-0.75734 5.68,-0.75734 z m -11.73867,23.47735 q 1.51467,11.36 11.36,11.36 h 0.37867 q 10.03467,0 11.36,-11.73867 -1.51466,-11.36 -11.36,-11.36 h -1.51467 q -7.668,0 -10.224,10.60267 z m 18.27067,-38.52935 q 2.17734,0 4.07067,1.60933 1.704,1.60934 1.704,3.78667 0,2.46133 -1.704,3.976 -1.79867,1.704 -4.07067,1.704 -2.556,0 -4.07067,-1.704 -1.704,-1.51467 -1.704,-3.976 0,-2.17733 1.704,-4.07067 1.79867,-1.32533 4.07067,-1.32533 z m -17.98667,0 q 2.17733,0 4.07067,1.60933 1.704,1.60934 1.704,3.78667 0,2.46133 -1.704,3.976 -1.79867,1.704 -4.07067,1.704 -2.556,0 -4.07067,-1.704 -1.704,-1.51467 -1.704,-3.976 0,-2.17733 1.704,-4.07067 1.79867,-1.32533 4.07067,-1.32533 z"
           style="font-family:Monadi;-inkscape-font-specification:Monadi;fill:#ffffff"
           id="path189" />
        <path
           d="m 877.15526,712.72534 h -30.57735 v -11.36 h 4.16534 q 9.088,-1.704 9.088,-9.08801 v -31.42934 q 0,-7.00534 10.98134,-12.87467 l 0.37866,0.75733 v 42.03202 q 0,5.86933 -2.272,10.60267 h 8.23601 z"
           style="font-family:Monadi;-inkscape-font-specification:Monadi;fill:#ffffff"
           id="path191" />
        <path
           d="m 787.50604,666.14932 0.37866,0.75734 v 25.37067 q 1.704,9.08801 9.08801,9.08801 h 25.37067 q 9.08801,-1.704 9.08801,-9.08801 V 679.024 q 0,-7.00534 10.98133,-12.87468 l 0.37867,0.75734 v 23.85601 q 0,5.86933 -2.272,10.60267 h 9.088 q 0.75734,0.0947 0.75734,0.75733 v 9.84534 q 0,0.75733 -0.75734,0.75733 h -51.12002 q -16.66134,0 -21.584,-16.66134 -0.37867,-3.21867 -0.37867,-5.30133 V 679.024 q 0,-7.00534 10.98134,-12.87468 z m 24.70801,50.17336 q 2.17733,0 4.07066,1.60933 1.704,1.60933 1.704,3.78667 0,2.46133 -1.704,3.976 -1.79866,1.704 -4.07066,1.704 -2.55601,0 -4.07067,-1.704 -1.704,-1.51467 -1.704,-3.976 0,-2.17734 1.704,-4.07067 1.79866,-1.32533 4.07067,-1.32533 z"
           style="font-family:Monadi;-inkscape-font-specification:Monadi;fill:#ffffff"
           id="path193" />
        <path
           d="m 734.68194,647.97332 0.37867,0.75733 v 63.23736 q 0,0.75733 -0.75734,0.75733 h -9.84533 q -0.75734,0 -0.75734,-0.75733 v -51.12002 q 0,-7.00534 10.98134,-12.87467 z"
           style="font-family:Monadi;-inkscape-font-specification:Monadi;fill:#ffffff"
           id="path195" />
        <path
           d="m 715.74864,647.59465 0.37867,0.75733 v 42.41069 q 0,16.66134 -16.66134,21.584 -3.21867,0.37867 -5.30134,0.37867 h -3.408 q -0.75733,0 -0.75733,-0.75733 v -9.84534 q 0.0947,-0.75733 0.75733,-0.75733 h 4.92267 q 9.088,-1.704 9.088,-9.08801 v -31.80801 q 0,-7.00533 10.98134,-12.87467 z"
           style="font-family:Monadi;-inkscape-font-specification:Monadi;fill:#ffffff"
           id="path197" />
        <path
           d="m 658.1913,666.52799 q 11.83334,0 20.06934,13.25334 2.556,5.01733 6.43734,21.58401 h 8.33067 q 0.75733,0.0947 0.75733,0.75733 v 9.84534 q 0,0.75733 -0.75733,0.75733 h -64.75203 q -0.75733,0 -0.75733,-0.75733 v -9.84534 q 0.0947,-0.75733 0.75733,-0.75733 h 44.30402 v -0.37867 q -3.21867,-16.75601 -7.95201,-20.06934 -5.20666,-3.78667 -11.36,-3.78667 -6.43734,0 -12.496,4.16534 h -0.37867 l -0.75733,-0.37867 q 0,-9.372 12.11733,-13.63201 4.92267,-0.75733 6.43734,-0.75733 z"
           style="font-family:Monadi;-inkscape-font-specification:Monadi;fill:#ffffff"
           id="path199" />
        <path
           d="m 568.06851,666.52799 0.37866,0.75733 v 11.36001 q 10.03467,-10.60267 24.23468,-10.60267 h 1.89333 q 18.55468,0 26.12801,20.82667 1.51467,5.58534 1.51467,12.49601 h 8.33067 q 0.75733,0.0947 0.75733,0.75733 v 9.84534 q 0,0.75733 -0.75733,0.75733 h -83.3067 q -0.75733,0 -0.75733,-0.75733 v -9.84534 q 0.0947,-0.75733 0.75733,-0.75733 h 9.84534 v -21.96268 q 0,-7.00533 10.98134,-12.87467 z m 0.37866,34.83735 h 41.27468 q 0,-15.80934 -8.70933,-20.44801 -4.16534,-1.89333 -7.57334,-1.89333 -12.496,0 -17.04,7.19467 -5.20667,5.30133 -7.95201,15.14667 z m 10.50801,-50.26802 q 2.17733,0 4.07066,1.60933 1.70401,1.60934 1.70401,3.78667 0,2.46133 -1.70401,3.976 -1.79866,1.704 -4.07066,1.704 -2.556,0 -4.07067,-1.704 -1.704,-1.51467 -1.704,-3.976 0,-2.17733 1.704,-4.07067 1.79867,-1.32533 4.07067,-1.32533 z"
           style="font-family:Monadi;-inkscape-font-specification:Monadi;fill:#ffffff"
           id="path201" />
        <path
           d="m 535.12454,647.59465 0.37866,0.75733 v 43.92535 q 1.704,9.08801 9.08801,9.08801 h 4.92266 q 0.75734,0.0947 0.75734,0.75733 v 9.84534 q 0,0.75733 -0.75734,0.75733 h -3.408 q -16.66134,0 -21.584,-16.66134 -0.37867,-3.21867 -0.37867,-5.30133 v -30.29335 q 0,-7.00533 10.98134,-12.87467 z"
           style="font-family:Monadi;-inkscape-font-specification:Monadi;fill:#ffffff"
           id="path203" />
        <path
           d="m 516.1912,666.52799 0.37867,0.75733 V 701.744 q 0,23.09868 -22.34134,29.53602 -1.42,0.37866 -3.02934,0.37866 l -0.75733,-0.37866 q 0,-8.70934 10.224,-15.90401 4.544,-5.30134 4.544,-11.73867 v -24.23468 q 0,-7.00533 10.98134,-12.87467 z"
           style="font-family:Monadi;-inkscape-font-specification:Monadi;fill:#ffffff"
           id="path205" />
        <path
           d="m 462.79923,666.52799 q 16.47201,0 23.09868,17.41867 0.75733,3.97601 0.75733,6.05867 0,14.67334 -16.66134,21.58401 -4.35467,1.136 -7.57334,1.136 -14.2,0 -21.584,-13.632 -2.27201,-4.82801 -2.27201,-9.84534 0,-15.33601 17.79734,-21.96268 4.73334,-0.75733 6.43734,-0.75733 z m -11.73867,23.47734 q 0,9.94001 11.73867,11.36001 11.36,-1.704 11.36,-11.36001 V 689.248 q 0,-9.94 -11.73867,-11.36 -8.61467,0 -11.36,9.84533 z m 18.08134,-38.90801 q 2.17733,0 4.07067,1.60933 1.704,1.60934 1.704,3.78667 0,2.46133 -1.704,3.976 -1.79867,1.704 -4.07067,1.704 -2.556,0 -4.07067,-1.704 -1.704,-1.51467 -1.704,-3.976 0,-2.17733 1.704,-4.07067 1.79867,-1.32533 4.07067,-1.32533 z m -17.98667,0 q 2.17733,0 4.07066,1.60933 1.704,1.60934 1.704,3.78667 0,2.46133 -1.704,3.976 -1.79866,1.704 -4.07066,1.704 -2.556,0 -4.07067,-1.704 -1.704,-1.51467 -1.704,-3.976 0,-2.17733 1.704,-4.07067 1.79867,-1.32533 4.07067,-1.32533 z"
           style="font-family:Monadi;-inkscape-font-specification:Monadi;fill:#ffffff"
           id="path207" />
        <path
           d="m 396.72183,647.97332 0.37866,0.75733 v 63.23736 q 0,0.75733 -0.75733,0.75733 h -9.84534 q -0.75733,0 -0.75733,-0.75733 v -51.12002 q 0,-7.00534 10.98134,-12.87467 z"
           style="font-family:Monadi;-inkscape-font-specification:Monadi;fill:#ffffff"
           id="path209" />
        <path
           d="m 377.78853,647.59465 0.37866,0.75733 v 42.41069 q 0,16.66134 -16.66133,21.584 -3.21867,0.37867 -5.30134,0.37867 h -3.408 q -0.75733,0 -0.75733,-0.75733 v -9.84534 q 0.0947,-0.75733 0.75733,-0.75733 h 4.92267 q 9.088,-1.704 9.088,-9.08801 v -31.80801 q 0,-7.00533 10.98134,-12.87467 z"
           style="font-family:Monadi;-inkscape-font-specification:Monadi;fill:#ffffff"
           id="path211" />
        <path
           d="m 347.6846,666.52799 0.37866,0.75733 v 23.47735 q 0,5.86933 -2.272,10.60267 h 9.27734 q 0.75733,0.0947 0.75733,0.75733 v 9.84534 q 0,0.75733 -0.75733,0.75733 h -33.32268 q -0.75733,0 -0.75733,-0.75733 v -9.84534 q 0.0947,-0.75733 0.75733,-0.75733 h 5.86934 q 9.088,-1.704 9.088,-9.08801 v -12.87467 q 0,-7.00533 10.98134,-12.87467 z m -4.63867,-15.43067 q 2.17733,0 4.07067,1.60933 1.704,1.60934 1.704,3.78667 0,2.46133 -1.704,3.976 -1.79867,1.704 -4.07067,1.704 -2.556,0 -4.07067,-1.704 -1.704,-1.51467 -1.704,-3.976 0,-2.17733 1.704,-4.07067 1.79867,-1.32533 4.07067,-1.32533 z"
           style="font-family:Monadi;-inkscape-font-specification:Monadi;fill:#ffffff"
           id="path213" />
        <path
           d="m 309.62863,647.59465 0.37866,0.75733 v 43.92535 q 1.704,9.08801 9.08801,9.08801 h 4.92266 q 0.75734,0.0947 0.75734,0.75733 v 9.84534 q 0,0.75733 -0.75734,0.75733 h -3.408 q -16.66134,0 -21.58401,-16.66134 -0.37866,-3.21867 -0.37866,-5.30133 v -30.29335 q 0,-7.00533 10.98134,-12.87467 z"
           style="font-family:Monadi;-inkscape-font-specification:Monadi;fill:#ffffff"
           id="path215" />
        <path
           d="m 280.94457,716.32268 q 2.17734,0 4.07067,1.60933 1.704,1.60933 1.704,3.78667 0,2.46133 -1.704,3.976 -1.79866,1.704 -4.07067,1.704 -2.556,0 -4.07066,-1.704 -1.704,-1.51467 -1.704,-3.976 0,-2.17734 1.704,-4.07067 1.79866,-1.32533 4.07066,-1.32533 z m 9.75067,-50.17336 0.37867,0.75734 v 23.85601 q 0,16.66134 -16.66134,21.584 -3.21867,0.37867 -5.30133,0.37867 h -2.272 q -0.75734,0 -0.75734,-0.75733 v -9.84534 q 0.0947,-0.75733 0.75734,-0.75733 h 3.78666 q 9.08801,-1.704 9.08801,-9.08801 V 679.024 q 0,-7.00534 10.98133,-12.87468 z"
           style="font-family:Monadi;-inkscape-font-specification:Monadi;fill:#ffffff"
           id="path217" />
        <path
           d="m 207.76728,666.52799 0.37867,0.75733 v 11.36001 q 10.03467,-10.60267 24.23467,-10.60267 h 1.89334 q 18.55467,0 26.12801,20.82667 1.51467,5.58534 1.51467,12.49601 h 7.19466 q 0.75734,0.0947 0.75734,0.75733 v 9.84534 q 0,0.75733 -0.75734,0.75733 h -62.85869 q -2.74533,8.89867 -12.11733,15.14667 -7.85734,3.78667 -14.76801,3.78667 -17.13467,0 -26.12801,-18.176 -1.89333,-5.77467 -1.89333,-11.36001 v -11.36 q 0,-6.62667 10.98133,-12.49601 h 0.37867 v 24.99201 q 0,12.21201 13.25334,16.66134 1.988,0.37867 3.78667,0.37867 12.30667,0 16.66134,-13.25334 0.37866,-1.988 0.37866,-3.78667 v -23.85601 q 0,-7.00533 10.98134,-12.87467 z m 0.37867,34.83735 h 41.27468 q 0,-15.80934 -8.70934,-20.44801 -4.16533,-1.89333 -7.57333,-1.89333 -12.49601,0 -17.04001,7.19467 -5.20667,5.30133 -7.952,15.14667 z m 9.75067,-50.26802 q 2.17733,0 4.07067,1.60933 1.704,1.60934 1.704,3.78667 0,2.46133 -1.704,3.976 -1.79867,1.704 -4.07067,1.704 -2.556,0 -4.07067,-1.704 -1.704,-1.51467 -1.704,-3.976 0,-2.17733 1.704,-4.07067 1.79867,-1.32533 4.07067,-1.32533 z"
           style="font-family:Monadi;-inkscape-font-specification:Monadi;fill:#ffffff"
           id="path219" />
      </g>
    </g>
  </g>
  <g
     inkscape:label="Layer 1"
     inkscape:groupmode="layer"
     id="layer1"
     style="display:inline"
     transform="translate(-146.69962,-332.53289)" />
</svg>
